<?xml version="1.0" encoding="UTF-8" ?>
<!DOCTYPE svg PUBLIC "-//W3C//DTD SVG 1.1//EN" "http://www.w3.org/Graphics/SVG/1.1/DTD/svg11.dtd">
<svg width="450pt" height="450pt" viewBox="0 0 450 450" version="1.1" xmlns="http://www.w3.org/2000/svg">
<g id="#f7f7f7ff">
</g>
<g id="#333333ff">
<path fill="#333333" opacity="1.00" d=" M 83.59 105.42 C 105.77 115.60 127.31 127.07 149.26 137.73 C 153.00 139.72 151.62 144.59 152.15 148.04 C 152.20 179.30 151.87 210.58 152.20 241.84 C 174.88 219.56 196.67 196.36 220.02 174.76 C 221.25 205.17 220.19 235.62 220.66 266.05 C 220.63 270.62 221.09 275.95 217.79 279.60 C 195.53 301.09 174.13 323.44 151.92 344.98 C 132.02 335.26 112.33 325.10 92.38 315.49 C 90.05 314.23 87.56 313.21 85.41 311.64 C 82.50 309.39 83.56 305.19 83.22 301.99 C 83.60 236.47 82.86 170.94 83.59 105.42 Z" />
<path fill="#333333" opacity="1.00" d=" M 300.72 137.74 C 322.63 127.04 344.21 115.64 366.32 105.37 C 367.15 172.91 366.41 240.46 366.71 308.00 C 366.02 311.50 362.49 313.08 359.63 314.51 C 338.98 324.40 318.64 334.93 298.06 344.98 C 278.62 326.08 259.74 306.62 240.41 287.60 C 236.90 284.14 233.03 280.92 230.29 276.79 C 228.95 272.66 229.42 268.28 229.33 264.02 C 229.77 234.27 228.73 204.50 229.95 174.77 C 253.31 196.36 275.07 219.58 297.78 241.83 C 297.93 215.58 297.92 189.32 297.81 163.06 C 297.86 156.04 297.57 149.01 298.11 142.00 C 298.19 140.28 299.11 138.48 300.72 137.74 Z" />
</g>
</svg>
